<?xml version="1.0" standalone="no"?>
<!DOCTYPE svg PUBLIC "-//W3C//DTD SVG 20010904//EN"
 "http://www.w3.org/TR/2001/REC-SVG-20010904/DTD/svg10.dtd">
<svg version="1.0" xmlns="http://www.w3.org/2000/svg"
 width="563.000000pt" height="400.000000pt" viewBox="0 0 563.000000 400.000000"
 preserveAspectRatio="xMidYMid meet">

<g transform="translate(0.000000,400.000000) scale(0.100000,-0.100000)"
fill="#000000" stroke="none">
<path d="M3630 3913 c0 -18 2 -33 4 -33 9 0 13 39 5 51 -6 10 -9 4 -9 -18z"/>
<path d="M3650 3882 c0 -13 -4 -20 -10 -17 -6 4 -10 -11 -10 -39 0 -89 -61
-303 -104 -361 -13 -18 -15 -16 -36 26 -27 52 -146 174 -208 213 -24 15 -45
26 -47 24 -2 -2 3 -28 11 -58 20 -77 18 -219 -5 -315 -19 -78 -70 -220 -116
-320 -181 -401 -212 -638 -107 -826 l25 -46 -37 -61 c-39 -65 -129 -151 -184
-178 -45 -21 -130 -21 -171 1 -18 9 -30 12 -27 6 4 -6 1 -9 -6 -6 -9 3 -19
-13 -30 -46 -16 -50 -16 -53 4 -95 19 -42 69 -94 89 -94 6 0 7 -4 4 -10 -3 -5
-41 -10 -85 -10 -61 0 -79 -3 -84 -16 -3 -8 -10 -13 -15 -10 -5 3 -7 -3 -4
-14 7 -24 0 -25 -38 -3 -17 10 -27 23 -24 31 2 7 0 10 -5 7 -12 -7 -55 57 -74
112 -39 111 -24 258 39 382 40 78 66 115 137 189 l53 56 5 -46 c6 -50 29 -92
61 -108 27 -15 31 -10 19 31 -16 55 -12 102 14 149 58 107 66 126 66 176 0 92
-32 140 -125 187 -49 25 -86 58 -118 107 l-17 24 0 -36 c0 -20 -7 -65 -16 -99
-10 -39 -15 -89 -12 -136 3 -67 -3 -92 -15 -60 -3 7 -9 1 -15 -14 -5 -14 -44
-68 -85 -121 -139 -178 -192 -268 -218 -373 -12 -49 -24 -51 -34 -5 -4 17 -10
30 -14 30 -4 0 -24 35 -45 79 l-39 78 18 74 c13 51 19 109 18 189 -1 119 1
111 -68 305 -10 31 42 -32 67 -80 l21 -40 9 30 c14 48 1 110 -42 201 -71 154
-124 230 -180 263 -12 7 -15 2 -16 -28 -1 -59 -14 -110 -27 -107 -7 1 -9 1 -4
-1 4 -3 7 -9 7 -15 0 -5 19 -33 43 -62 86 -108 87 -109 81 -135 -4 -18 -3 -22
4 -13 7 11 10 11 15 -3 4 -9 3 -13 -3 -10 -6 3 -10 1 -10 -5 0 -6 -4 -9 -9 -5
-5 3 -15 -21 -21 -52 -7 -32 -16 -69 -22 -83 -5 -14 -12 -41 -14 -60 -4 -42
-24 -111 -35 -124 -4 -5 -48 22 -96 60 -48 38 -112 87 -141 108 -114 82 -178
296 -188 626 -5 161 -6 167 -42 254 l-36 89 -71 -75 c-201 -217 -260 -455
-166 -678 32 -78 104 -190 150 -235 17 -16 31 -38 31 -47 0 -10 11 -51 24 -92
13 -41 22 -77 20 -79 -8 -8 -104 14 -148 33 -24 10 -59 32 -80 50 l-36 32 0
-35 c0 -54 28 -201 51 -270 32 -91 102 -224 153 -286 42 -51 146 -144 154
-137 1 2 -13 21 -33 42 -47 51 -113 163 -141 240 -19 51 -44 206 -44 269 0 10
20 -6 51 -40 79 -85 144 -117 374 -180 238 -65 372 -125 446 -201 36 -37 43
-51 56 -120 15 -82 75 -222 113 -261 26 -29 23 -29 -45 2 -52 23 -187 55 -440
105 -108 22 -208 53 -233 73 -26 21 -23 -5 13 -106 20 -58 38 -123 38 -145 2
-37 4 -39 22 -29 36 18 79 59 111 103 l31 44 18 -40 c10 -22 34 -55 54 -73
115 -105 140 -136 157 -194 13 -45 15 -68 7 -105 -5 -27 -7 -48 -3 -48 22 0
120 83 149 127 l34 51 51 -39 c53 -40 157 -83 239 -98 26 -5 47 -7 47 -4 0 2
-15 17 -34 34 -58 50 -91 140 -67 178 8 12 18 9 58 -17 73 -47 172 -90 233
-103 71 -14 241 -14 305 1 46 10 50 10 67 -12 10 -13 26 -45 35 -73 19 -53 22
-188 12 -555 l-4 -165 32 -65 c18 -36 46 -79 64 -95 l32 -30 -25 35 c-41 57
-53 99 -51 182 1 79 10 116 45 199 15 36 26 48 56 59 20 7 40 18 44 24 11 16
10 -101 -2 -209 -11 -93 -11 -94 19 -153 56 -110 153 -174 286 -188 l60 -6
-29 20 c-59 41 -99 140 -110 272 l-6 75 25 -69 c42 -118 102 -229 154 -287
157 -176 447 -206 788 -82 50 18 47 33 -5 33 -102 1 -261 57 -369 131 -27 18
-82 68 -124 111 -58 59 -86 99 -122 170 -54 109 -66 148 -45 148 8 0 29 11 47
24 l33 25 -30 15 c-37 19 -84 84 -147 201 -26 50 -60 108 -75 130 -71 103
-189 194 -308 238 -74 27 -210 28 -300 2 l-63 -18 -29 28 c-17 16 -30 32 -30
36 0 4 25 19 55 33 31 14 81 45 113 69 94 73 212 109 357 108 123 0 213 -32
288 -100 39 -35 33 -14 -11 40 -95 119 -231 184 -362 174 -55 -4 -59 -3 -28 5
110 28 314 177 314 228 0 11 -4 18 -9 15 -5 -3 -6 -11 -3 -19 3 -8 1 -14 -4
-14 -6 0 -10 6 -10 13 0 7 -3 8 -8 2 -4 -5 -18 -16 -32 -24 l-25 -14 19 22
c21 23 16 26 -17 10 -20 -9 -20 -9 -4 4 23 19 22 27 -3 27 -26 0 -82 28 -93
46 -4 8 -16 14 -26 14 -10 0 -24 6 -30 14 -7 8 -25 17 -40 21 -16 3 -43 17
-60 29 l-32 24 113 35 c62 20 124 38 138 42 14 4 68 20 121 37 92 29 96 32
107 67 67 218 82 323 62 440 -8 46 -16 71 -23 68 -7 -2 -11 -11 -11 -20 1 -9
-2 -14 -8 -11 -5 3 -15 0 -23 -6 -8 -7 -15 -9 -15 -4 0 4 11 17 24 29 23 18
25 30 34 155 10 139 8 387 -3 399 -4 3 -20 -10 -37 -29 -27 -32 -29 -33 -23
-10 31 118 36 161 31 250 -5 98 -27 186 -64 255 -17 33 -21 36 -22 17z m20
-59 c0 -24 -3 -33 -8 -25 -5 7 -7 23 -6 35 3 27 3 27 9 27 3 0 5 -17 5 -37z
m30 -48 c0 -5 -5 -3 -10 5 -5 8 -10 20 -10 25 0 6 5 3 10 -5 5 -8 10 -19 10
-25z m-48 0 c3 -13 1 -22 -3 -19 -9 5 -13 44 -5 44 2 0 6 -11 8 -25z m-5 -57
c-3 -8 -6 -5 -6 6 -1 11 2 17 5 13 3 -3 4 -12 1 -19z m-2374 -713 c28 -55 156
-213 166 -205 10 8 9 -54 -2 -67 -5 -7 -23 -13 -39 -13 -16 0 -31 -6 -34 -14
-3 -8 -13 -17 -21 -20 -14 -6 -14 -4 -2 11 8 10 1 7 -18 -7 -28 -20 -35 -21
-50 -10 -15 12 -16 12 -5 0 15 -18 16 -40 0 -40 -6 0 -8 3 -5 6 3 4 2 15 -4
26 -8 14 -7 24 3 36 8 10 9 13 1 9 -6 -4 -14 -3 -17 2 -11 17 -29 329 -21 358
l8 28 7 -25 c4 -14 19 -47 33 -75z m213 -247 c14 -16 14 -19 2 -10 -14 11 -17
10 -20 -5 -3 -13 -6 -10 -10 10 -6 33 3 34 28 5z m749 -667 c3 -5 1 -12 -5
-16 -5 -3 -10 1 -10 9 0 18 6 21 15 7z m1365 -115 c0 -2 -8 -10 -17 -17 -16
-13 -17 -12 -4 4 13 16 21 21 21 13z m-1075 -387 c4 -6 14 -8 24 -4 12 5 13 3
4 -6 -9 -9 -17 -8 -34 5 -13 9 -18 16 -12 16 7 0 15 -5 18 -11z m295 -216 c0
-5 -5 -15 -10 -23 -8 -12 -10 -11 -10 8 0 12 5 22 10 22 6 0 10 -3 10 -7z
m350 -444 c-7 -11 -14 -18 -17 -15 -8 8 5 36 17 36 7 0 7 -6 0 -21z"/>
<path d="M3847 3170 c-3 -8 -10 -43 -16 -77 -7 -34 -23 -95 -36 -135 l-25 -73
26 30 c14 17 40 51 58 78 32 45 33 50 24 104 -10 65 -24 97 -31 73z"/>
<path d="M310 2666 c0 -73 15 -106 22 -48 2 22 8 28 35 30 26 3 34 9 39 29 10
38 -7 58 -55 61 l-41 3 0 -75z m68 26 c3 -18 -1 -22 -22 -22 -19 0 -26 5 -26
18 0 39 43 43 48 4z"/>
<path d="M439 2725 c-1 -8 -1 -31 -1 -50 0 -68 2 -85 11 -85 6 0 11 19 13 43
2 29 8 42 18 42 10 0 16 -13 18 -42 2 -29 8 -43 18 -43 10 0 14 12 14 44 0 49
-18 71 -50 61 -17 -5 -20 -2 -20 19 0 27 -19 37 -21 11z"/>
<path d="M905 2731 c-6 -11 9 -23 19 -14 9 9 7 23 -3 23 -6 0 -12 -4 -16 -9z"/>
<path d="M566 2684 c-31 -30 -10 -94 30 -94 34 0 54 20 54 55 0 50 -50 73 -84
39z m58 -27 c8 -12 7 -21 -6 -33 -20 -20 -38 -11 -38 20 0 39 23 46 44 13z"/>
<path d="M681 2686 c-7 -8 -11 -30 -9 -48 2 -25 9 -35 31 -42 22 -8 31 -6 45
8 16 17 16 18 -14 11 -24 -4 -33 -2 -37 9 -5 13 1 16 28 16 28 0 35 4 35 20 0
34 -57 53 -79 26z m54 -16 c3 -5 -3 -10 -14 -10 -12 0 -21 5 -21 10 0 6 6 10
14 10 8 0 18 -4 21 -10z"/>
<path d="M788 2660 c-4 -44 1 -70 12 -70 5 0 10 19 12 42 2 31 8 44 21 46 14
3 17 -4 17 -42 0 -34 4 -46 15 -46 11 0 15 12 15 44 0 50 -12 63 -57 63 -29 0
-32 -3 -35 -37z"/>
<path d="M910 2645 c0 -30 5 -55 10 -55 6 0 10 25 10 55 0 30 -4 55 -10 55 -5
0 -10 -25 -10 -55z"/>
<path d="M960 2693 c0 -5 7 -17 15 -27 13 -17 13 -23 -1 -44 -20 -30 -10 -41
16 -17 18 16 20 16 26 1 3 -9 15 -16 25 -16 19 0 19 1 -2 29 -20 27 -20 30 -4
55 15 22 15 26 2 26 -8 0 -18 -8 -22 -17 -6 -17 -7 -17 -19 0 -13 17 -36 24
-36 10z"/>
<path d="M2811 2428 c-1 -30 4 -41 24 -54 20 -13 28 -14 40 -4 21 18 19 33 -5
27 -25 -6 -47 12 -53 43 -3 18 -5 15 -6 -12z"/>
<path d="M2771 2389 c-15 -43 -14 -114 2 -127 6 -5 22 -13 35 -17 22 -6 22 -6
-4 32 -22 32 -25 46 -22 91 3 28 4 52 2 52 -1 0 -7 -14 -13 -31z"/>
<path d="M2573 1973 c4 -6 3 -14 -3 -18 -5 -3 -10 -14 -10 -23 1 -13 5 -10 16
8 14 23 14 23 9 3 -7 -26 -3 -29 14 -10 8 11 6 18 -11 33 -12 10 -18 14 -15 7z"/>
<path d="M3770 1415 c0 -60 3 -75 15 -75 11 0 15 13 16 53 1 56 2 55 19 -10
14 -56 34 -54 51 5 l13 47 4 -47 c5 -76 22 -55 22 27 0 68 -2 75 -19 75 -15 0
-23 -12 -34 -47 l-14 -48 -13 48 c-10 39 -16 47 -36 47 -23 0 -24 -3 -24 -75z"/>
<path d="M4172 1478 c6 -18 28 -21 28 -4 0 9 -7 16 -16 16 -9 0 -14 -5 -12
-12z"/>
<path d="M4392 1478 c3 -7 14 -14 26 -16 20 -3 22 -9 22 -63 0 -46 3 -59 15
-59 12 0 15 13 15 59 0 50 3 59 20 64 43 11 19 27 -41 27 -44 0 -60 -3 -57
-12z"/>
<path d="M4520 1415 c0 -60 3 -75 15 -75 10 0 15 10 15 33 0 17 4 38 9 46 15
23 31 2 31 -40 0 -28 4 -39 15 -39 11 0 15 12 15 44 0 49 -18 71 -50 61 -17
-5 -20 -2 -20 19 0 16 -6 26 -15 26 -12 0 -15 -15 -15 -75z"/>
<path d="M4870 1466 c0 -8 -6 -16 -12 -19 -10 -4 -10 -7 0 -18 6 -7 12 -30 12
-51 0 -31 4 -38 20 -38 21 0 27 15 10 25 -14 9 -12 48 3 64 10 11 10 14 0 18
-7 3 -13 11 -13 19 0 8 -4 14 -10 14 -5 0 -10 -6 -10 -14z"/>
<path d="M3956 1434 c-34 -33 -9 -94 38 -94 31 0 46 18 46 55 0 17 -5 36 -12
43 -17 17 -54 15 -72 -4z m58 -52 c-16 -25 -38 -21 -42 7 -5 30 18 45 38 25
11 -11 12 -19 4 -32z"/>
<path d="M4070 1400 c11 -28 20 -53 20 -55 0 -3 7 -5 15 -5 8 0 15 2 15 5 0 2
9 27 20 55 16 41 17 50 6 50 -8 0 -21 -16 -28 -36 l-12 -35 -12 33 c-6 18 -18
34 -28 36 -15 3 -14 -1 4 -48z"/>
<path d="M4170 1395 c0 -42 3 -55 15 -55 12 0 15 13 15 55 0 42 -3 55 -15 55
-12 0 -15 -13 -15 -55z"/>
<path d="M4242 1438 c-7 -7 -12 -26 -12 -43 0 -36 15 -55 46 -55 27 0 51 25
33 35 -6 4 -15 2 -19 -5 -4 -7 -13 -9 -19 -6 -21 13 -11 26 19 26 22 0 30 5
30 18 0 24 -19 42 -45 42 -12 0 -26 -5 -33 -12z m48 -18 c0 -5 -7 -10 -15 -10
-8 0 -15 5 -15 10 0 6 7 10 15 10 8 0 15 -4 15 -10z"/>
<path d="M4652 1438 c-7 -7 -12 -26 -12 -43 0 -36 15 -55 46 -55 27 0 51 25
33 35 -6 4 -15 2 -19 -5 -4 -7 -13 -9 -19 -6 -21 13 -11 26 19 26 22 0 30 5
30 18 0 24 -19 42 -45 42 -12 0 -26 -5 -33 -12z m48 -18 c0 -5 -7 -10 -16 -10
-8 0 -12 5 -9 10 3 6 10 10 16 10 5 0 9 -4 9 -10z"/>
<path d="M4759 1434 c-12 -15 -10 -16 19 -10 41 10 43 -8 1 -23 -24 -8 -30
-15 -27 -33 3 -19 10 -23 46 -25 l42 -2 0 43 c0 23 -5 47 -12 54 -17 17 -53
15 -69 -4z m51 -59 c0 -8 -7 -15 -15 -15 -16 0 -20 12 -8 23 11 12 23 8 23 -8z"/>
<path d="M4942 1438 c-7 -7 -12 -26 -12 -43 0 -36 15 -55 46 -55 27 0 51 25
33 35 -6 4 -15 2 -19 -5 -4 -7 -13 -9 -19 -6 -21 13 -11 26 19 26 22 0 30 5
30 18 0 24 -19 42 -45 42 -12 0 -26 -5 -33 -12z m48 -18 c0 -5 -7 -10 -16 -10
-8 0 -12 5 -9 10 3 6 10 10 16 10 5 0 9 -4 9 -10z"/>
<path d="M5040 1394 c0 -41 4 -54 15 -54 11 0 15 11 15 41 0 32 4 42 20 46 32
8 23 21 -15 21 l-35 0 0 -54z"/>
<path d="M4388 634 c-3 -3 12 -22 35 -43 37 -35 41 -43 45 -97 3 -50 0 -65
-20 -94 -35 -53 -80 -72 -155 -67 -38 3 -77 13 -100 26 l-38 21 25 -21 c14
-12 53 -35 88 -52 55 -25 71 -29 131 -25 54 3 77 9 108 31 97 67 110 181 30
266 -45 47 -127 78 -149 55z"/>
<path d="M4310 451 c0 -25 -5 -30 -27 -34 -27 -4 -26 -4 4 -6 34 -1 66 30 56
55 -10 26 -33 15 -33 -15z"/>
</g>
</svg>
